/* XPM */
static char *_5343_fc2fd31a9dfb83f20bf615637df28be1d9b90648c5a675cf716065776c5dd488[] = {
/* columns rows colors chars-per-pixel */
"50 50 253 2 ",
"   c #767E04",
".  c #6D7C18",
"X  c #767912",
"o  c #697A25",
"O  c #767E26",
"+  c #767832",
"@  c #8F7808",
"#  c #BB7C02",
"$  c #AC7412",
"%  c #AF7A31",
"&  c #DA6A00",
"*  c #C47A00",
"=  c #C67503",
"-  c #D27300",
";  c #D37C00",
":  c #C67516",
">  c #D5711C",
",  c #CF691A",
"<  c #E36A00",
"1  c #E97800",
"2  c #CE7125",
"3  c #6D8400",
"4  c #6D8B00",
"5  c #6F840B",
"6  c #738501",
"7  c #7A8501",
"8  c #748B01",
"9  c #7A8C01",
"0  c #77880B",
"q  c #759301",
"w  c #7C9501",
"e  c #759901",
"r  c #7D9A01",
"t  c #7C940A",
"y  c #7C9C0A",
"u  c #6D8518",
"i  c #718514",
"p  c #778818",
"a  c #7C921A",
"s  c #7CA103",
"d  c #768526",
"f  c #748838",
"g  c #7B8E26",
"h  c #7B8A45",
"j  c #7B8069",
"k  c #858801",
"l  c #988800",
"z  c #839501",
"x  c #8C9400",
"c  c #829B01",
"v  c #8A9C01",
"b  c #829B0A",
"n  c #86950B",
"m  c #969603",
"M  c #889915",
"N  c #8B8D19",
"B  c #A88601",
"V  c #B58602",
"C  c #AC9B0E",
"Z  c #84A200",
"A  c #8AA402",
"S  c #8CAB03",
"D  c #8CAC0B",
"F  c #87A808",
"G  c #92AD03",
"H  c #92AE0B",
"J  c #98A808",
"K  c #8DB10B",
"L  c #8DB103",
"P  c #93B104",
"I  c #9CB404",
"U  c #9CBA03",
"Y  c #94B10C",
"T  c #9CB40C",
"R  c #9DBB0C",
"E  c #96B900",
"W  c #8EAB11",
"Q  c #8EA613",
"!  c #93AB13",
"~  c #9AAD14",
"^  c #9DAD1A",
"/  c #94A619",
"(  c #95B312",
")  c #9CB414",
"_  c #9EBA14",
"`  c #9CB41B",
"'  c #9EBB1A",
"]  c #8FB313",
"[  c #A6A90D",
"{  c #A3B503",
"}  c #A3BB04",
"|  c #A3B40C",
" . c #A2BB0B",
".. c #ABB809",
"X. c #A3B512",
"o. c #A3BB13",
"O. c #ABBB12",
"+. c #A1B51C",
"@. c #A3BA1A",
"#. c #AAB616",
"$. c #B4B714",
"%. c #B1AB0F",
"&. c #878D29",
"*. c #9AA927",
"=. c #9CB423",
"-. c #98AB34",
";. c #8DA628",
":. c #A5B523",
">. c #A7B234",
",. c #D19912",
"<. c #FC8B02",
"1. c #FE8C0B",
"2. c #F98A05",
"3. c #FC9204",
"4. c #F6950B",
"5. c #FD930C",
"6. c #FE990D",
"7. c #F59708",
"8. c #F88D13",
"9. c #FC9414",
"0. c #FE9B14",
"q. c #FF951A",
"w. c #FD9C1B",
"e. c #F59A18",
"r. c #E7940C",
"t. c #C8A413",
"y. c #F8A10E",
"u. c #FCA414",
"i. c #FEA41C",
"p. c #FEAB1B",
"a. c #F9A918",
"s. c #FCB71A",
"d. c #EEA008",
"f. c #EA9926",
"g. c #FE9C21",
"h. c #FC9828",
"j. c #FC9835",
"k. c #ED9F3B",
"l. c #EDA62E",
"z. c #FFA423",
"x. c #FFAB24",
"c. c #FEA42B",
"v. c #FEAC2B",
"b. c #F7AA25",
"n. c #FFB423",
"m. c #FDBB23",
"M. c #FEB42C",
"N. c #FEBA2A",
"B. c #F2B82A",
"V. c #FEAE34",
"C. c #F7A738",
"Z. c #ECB938",
"A. c #FEB435",
"S. c #FEB43C",
"D. c #FEBB3D",
"F. c #F7BA35",
"G. c #ECAF2C",
"H. c #D88F29",
"J. c #9FC20A",
"K. c #A7C106",
"L. c #B4CA0D",
"P. c #ABC61A",
"I. c #B2CD1B",
"U. c #B4C717",
"Y. c #B5D21B",
"T. c #B9D319",
"R. c #AED11F",
"E. c #ADC924",
"W. c #B3CC23",
"Q. c #B4CB2C",
"!. c #B9C928",
"~. c #BCD22A",
"^. c #B8D427",
"/. c #B8C938",
"(. c #B9D638",
"). c #FDC41E",
"_. c #C4CA29",
"`. c #DCC73B",
"'. c #CBCD32",
"]. c #FDC42C",
"[. c #FDC727",
"{. c #FED32D",
"}. c #FBD528",
"|. c #E6C736",
" X c #FEC434",
".X c #FECC33",
"XX c #FBC53B",
"oX c #FDD334",
"OX c #FEDB33",
"+X c #FFD53B",
"@X c #FDDB3D",
"#X c #FFE52E",
"$X c #FCE334",
"%X c #FAE739",
"&X c #FCF338",
"*X c #89944D",
"=X c #9AB54C",
"-X c #A6B156",
";X c #A5AD6A",
":X c #A6AD6C",
">X c #8E9D74",
",X c #FFBB44",
"<X c #FDBA47",
"1X c #F0BD4E",
"2X c #DEBD7A",
"3X c #B9CA48",
"4X c #BCD342",
"5X c #BCCF63",
"6X c #C7CC56",
"7X c #D3D649",
"8X c #FEC34A",
"9X c #FBC545",
"0X c #FFD647",
"qX c #F9D252",
"wX c #FFE443",
"eX c #FEE54B",
"rX c #FEEC49",
"tX c #FDF747",
"yX c #FFE856",
"uX c #FDF657",
"iX c #CACC63",
"pX c #E8D274",
"aX c #FEEB67",
"sX c #FEF869",
"dX c #FFED75",
"fX c #FDF878",
"gX c #E7E56A",
"hX c #B9C88D",
"jX c #BEC2A1",
"kX c #FFDA9F",
"lX c #FFE98A",
"zX c #FEFC8B",
"xX c #FDF686",
"cX c #FEFC95",
"vX c #FFF49A",
"bX c #FCFC9B",
"nX c #FFE894",
"mX c #FFEBA7",
"MX c #FDFDA4",
"NX c #FEFFAB",
"BX c #FCF8A7",
"VX c #FFF3B4",
"CX c #FDFEB4",
"ZX c #FEFDBD",
"AX c #FCF5B8",
"SX c #FFECB6",
"DX c #D9E285",
"FX c #FFFEC4",
"GX c #FEFDCC",
"HX c #FEF7C6",
"JX c #FFFED3",
"KX c #FDFFD9",
"LX c #A4A88F",
/* pixels */
"U w   O jXLX:Xg t s w w q W H F D 4 4 s q q +.X.X.| A A z a o hX>Xh u 6 c R U ..O.!.v q s e 8 7 /.n ",
"} I /.a h *Xd g t r y e w D D H ~ r q q F r r ) ) J T ~.9 0 o + h . 5 q Q.H  .T | z w r s r 8 6 9 7 ",
"} U.Q.4X3 3Xt t b q y y W ( K S ! w y r e r e ( @.Y ) v k 6 9 3X5 p 6 6 8 ) ) c v z z r F r w ~ W. .",
"T r 4 Q.S ~.(.r r r w 8 w W S r z w c r e s s K K @.) k 9 9 8 (.9   7 7 z b r ( ( q c ~ c r A ) o.| ",
"Q.w G G S G D F S r r s c w r H U.v v z Z e c ' o.z ~ 9 9 / 3 ! 7 '.9   n t r e q Z K ( ) Y w ` ) ) ",
"3X6 9 A S H E.D r s r r q r e c O.U.U.z !.+.9 :.:.z !.Q / 9 =.Q 9 !.9 4X8 c c E.R.R.T @.) ) ' 8 w 8 ",
":X;X=X4Xw w w r r r r c c Z w w o. . .J !.>.N >.>.-.3Xa >./ / H H K F (.s q c w ) T T I T X.e 4 8 8 ",
"h d M 3 y w y r r r r w r w w z z ` :.>.6XMXbXMXMXMXNXMXbXiX-./ ] F L S s r c ) c X.| J z ~.~.r b 3 ",
"t t e z z w w r r c R c A w z /./.6XMXZXFXFXFXZXFXFXFXFXCXCXCXNX-.*.S R E.S s e 9 z ^ x W.r r e r w ",
"e c c r e c c c ) Y Y.^.9 4XM M bXCXFXGXKXJXGXGXGXGXJXGXGXGXGXGXCXbX*.~ D (./.y 6 n 7 6 z c y y c r ",
"c w c c w c e ~ ) R  .P.z M DXZXFXFXGXKXJXGXGXGXGXJXJXGXJXGXJXGXJXFXZXiX*.*.. =X=X=X8 6 8 t 8 q q c ",
"z e ^.c w c ^ =.) T { !.3XMXZXGXGXGXGXHXZXAXAXmXkXSXHXHXHXHXAXHXHXJXHXFXpXN &.p u i 3 w 7 9 w e Z H ",
"I.r o.T r o.J w ) X.I :.MXZXFXGXHXGXSXmX2 , > , > 2 2 , : 2 SXSXZXGXJXHXCXpXN   M 4X9 7 7 7 _.^.S P ",
"^.Y.^. .c I.@.+.z ~ =.xXCXGXZXHXAXAX% 2 j.j.h.j.j.j.j.j.j.j.> $ mXCXHXJXHXMX6Xk 9 +.^ ^ :.9 G E G S ",
"L.T.E K.} T.v z X.:.6XbXNXCXCXBXmX: k.C.8XD.<X,X<X<X<X<X<X<Xk.j.: nXBXZXNXCXMX0 7 7 :.) X.) ^.E S L ",
"U L.} } U U I.I.v k bXMXMXBXBXlX: j.,XD.D.9XD.8X8X1X8X8X8X<X8X<Xj.: nXvXNXNXbXcX3X/ ` ) ) R J.J.R Y ",
"G G } ....U.T c w fXzXcXvXvXlX: l.D.S.XXD.D.F.8XpXlX8XZ.<XD.D.9X,Xl.: lXvXvXcXzX6X7 ~ ^ :._ J.E S S ",
"o. .{ { I G r c 9 zXfXzXlXlX: f.S.D.XXS.D.<X,X1XnXvX1X9XF.D.S.,X,XS.e.# xXzXzXxXxXn   7 6 F R J._ Y ",
"R o. .U U.Y.R.w 7XfXxXfXfX# l.S.,XS.,XV.S.S.<X1XvXvXxX<XD.S.<X,XS.,XS.l.dXfXxXfXfX@ p N =.w ' ) r ( ",
") o.T Z Y.I.4 ~.sXsXsXsXdXf.V.A.V.<XV.,XS.<XZ.dXxXxXdXZ.Z.S.C.,XS.c.S.S.V dXsXfXsXgX=X. b c ` c ' s ",
"o.w ' 8 Z A v !.sXuXsXuXyXA.v.A.S.V.A.M.G.`.`.aXdXdXaXyXZ.XXZ.A.A.D.V.V.,.sXsXsXsXgX-X*X9 +.b 6 q Z ",
"T c e r q o._.[ uXtXtXuX# v.v.v.V.c.v. XyXrXuXyXaXyXsXeXrXeXyXB.b.V.c.V.M.rXuXtXuXsXX d 8 9 8 t y e ",
"r r q r w k x `.uXtXtXrXr.v.z.v.- 8XyXeX%XtXwXrXeXeXeXwXrX%XeX0X0X0X- v.x.V rX&XtXuX0 0 9 6 4 b 8 c ",
"w E.Z 8 w Q.C `.tX&X&XrXv.c.v.i.& - 0X+X%X$X%X0XwX@X0XwXOX%XwX0X0X= g.c.c.r.&X&X&XtX(.6   4 8 3 c e ",
"v E.P.q r !.l |.tX&X%XeXb.j.x.p.i.- - 9XoXOXOX@X+X@X.X+XOX{.oX0X= z.x.z.c.b.#X&X&X&XX.=.8 8 8 w z w ",
"| c P.P.I.| '.|.%X#X#X%Xb.c.i.u.i.w.8.- .XoX.X.X.X.X0XoX{.oXXX= z.i.w.i.z.b.$X#X#X$XA ` 4 6 8 7 ` c ",
"{ ..U U U O.[ '.$X#X#XoXi.e.a.u.i.w.q.g.= ]. X X]..XXX].[. X= g.z.i.0.x.w.F.oX#X#X$Xk 4 4 8 3 b E.c ",
"L.{ } K.U U $.%.$X}.}.}.M.e.i.e.0.q.c.w.a.N.N.N. XN.N.XXm.N.i.q.w.w.w.5.i.+X@XOX}.%X6 3 0 8 8 w P.I.",
"L.I Y.J.R  .o.%.}.}.}.}.[.e.u.e.0.0.9.e.N.N.x.M.N.x.M.v.N.N.0.w.w.w.w.i.r..XoXoXoX@X7 8 8 t w r E.R ",
"I T.U R _ o.I ..}.[.}.).[.y.7.6.6.0.5.0.i.x.v.z.i.4.v.c.x.i.x.9.4.w.9.e.d..X[..X.X|.7 8 w q Q.) P P ",
"G A G T r c ....|.{.[.).[.m.6.5.6.5.6.5.c.c.c.& & & & 2.g.z.i.6.0.4.8.e.).[..X]. XV x z r r E.T G S ",
"S P Y ~.r H { %.l B.].[.s.m.3.3.3.5.5.1.q.& & < 5.6.1.< & 1 q.5.3.4.e.yX).).s. XF.B x r r r 8 Z q R ",
"Y ^.) e q w T m t.Z.m.).s.s.n.3.2.7.5.1.& < 1.1.3.<.<.5.1.< < <.1.2.7.s.s.s.).B.B l x z z z w 8 4 D ",
"4 / 0 0 9 w !.U.%.V B.a.s.a.s.p.7.2.1.1.1.1.<.<.<.3.<.<.1.1.<.1.<.2.p.p.s.s.s.B.B m v w c w y 8 W Q ",
"-.u :X;X6 Q.W.T X.%.B G.a.u.a.p.u.7.4.1.1.1.1 <.<.<.<.<.2.1.2.3.w.z.x.p.u.p.p.V %.z _.c e 4 F 3 8 3 ",
"u g h h 0 c W.U J J C 9Xp.u.a.u.u.p.9X4.1.2.1.<.<.<.<.2.7.2.2.0.z.i.i.p.p.a.* t.%.X.T ) r (.4 8 6 8 ",
"0 3 i t 3 I.U P.T z l B D.h.w.i.0.0.6.0.u.7.2.<.<.3.3.3.6.0.y.u.y.u.0.9.g.G.@ m [ | o.T ^.( Z 4 8 0 ",
"6 (.9 W.I.r E I.r z m l V <Xf.w.6.0.i.0.0.0.5.6.6.6.6.6.0.u.0.6.y.7.z.h.H.$ 0 t +.~ #.( ' 4 q r ` 6 ",
"O.I.U.L.r U c v z z x k m B r.h.q.0.9.w.q.q.9.6.6.6.9.0.0.6.0.q.0.w.8.$ % + d ;.:.A w =.` z @.7 :.w ",
"..{ ..} U R r z n k z z n C ,.* v.w.w.8.q.9.0.w.0.0.0.q.q.q.w.q.w.<X: $ + h h u t z w r r ' X.#.8 _ ",
"| { K.Y.J.J.z c r c r e c ~ m C # * V.w.q.q.q.0.0.w.w.q.g.q.h.V.= $ 2X;X:X-Xi a 8 e _ S r Y  .} o.T ",
" .U L ^. .'.) X.@.e r r e w v [ l # # * ; v.z.e.e.f.e.A.v.= # ,.$ X % + @ X 0 w 8 c U  .Z K.} T.I P ",
"S R F S ^.G U X.c e z w z b 4 w k l @ m %.B V * * * V V C %.l m z x 5 ;.M 0 (.w 8 c A U  . .A I P L ",
"L S D L S T.A w c z Q.v +.w 4 4 7 n ( P.X.$.%.,.t.V B B x m w D r K r ` (.Q.W.A ^.r ^.R | o.o.T L S ",
"K F K L P Y.^.c z ~.U.| X.9 X./.9 6 ` ) | | O..._.$._._.z v w Q W F D F K K S P c ~.T @.o.P U R E S ",
"] K K F c S e c w P._.O.^ =.:.  6 8 9 @...{ } U { | ~.w c c e ! Y K D K W D A G G G ) Y v o.R P _ S ",
"D w +.w A F e e y r r e 5 i o d 0 =.+.3 I.} }  . .U } ^.e r F s F L K D D ~ H E.T ^.c w ( _ r R ( r ",
"! w 9 z c q s e e y 4 t 3 5X;X-X0 8 9 W.c I.{ z ..U { P.e s ;.u s D r W / w c G s r w c c r s _ ' r ",
"w 8 4 8 b q c r c t c 8 9 Q i . 3X8 8 z c P.v G U T P.c c a hX;Xd 5 t q w c c Y c _ c w c r r _ r r ",
"9 6 8 8 b 8 z e e c w e Q.(.0 ;.9 9 3 w z c +.) T W.o.w n u >Xj f u 0 w w c H _ ) H z b r c Y r e r "
};
