/* XPM */
static char *_09_f8a39ba1093a020fda59b5e1d78abb370fe2c7a8a5f5b7ea2c9bf1f964421060[] = {
/* columns rows colors chars-per-pixel */
"50 50 252 2 ",
"   c #1A0600",
".  c #1D1700",
"X  c #230C00",
"o  c #290A00",
"O  c #251300",
"+  c #2C1300",
"@  c #281A00",
"#  c #331500",
"$  c #3C1500",
"%  c #331C01",
"&  c #3B1C01",
"*  c #3B1E0A",
"=  c #331B09",
"-  c #300F00",
";  c #352201",
":  c #3C2202",
">  c #3D2B02",
",  c #3D230B",
"<  c #382B05",
"1  c #393700",
"2  c #35290A",
"3  c #421E01",
"4  c #442402",
"5  c #4A2501",
"6  c #4B2A02",
"7  c #43240A",
"8  c #442C0C",
"9  c #4A2A0D",
"0  c #422C04",
"q  c #522C02",
"w  c #532A06",
"e  c #443201",
"r  c #4C3B01",
"t  c #4C310D",
"y  c #4A3706",
"u  c #553806",
"i  c #442511",
"p  c #452B12",
"a  c #4B2D14",
"s  c #4E2F19",
"d  c #4D2710",
"f  c #4D3213",
"g  c #4B331A",
"h  c #533414",
"j  c #5C3B15",
"k  c #53351A",
"l  c #59371B",
"z  c #5D3C1B",
"x  c #563915",
"c  c #512F16",
"v  c #643B04",
"b  c #623E1B",
"n  c #603B13",
"m  c #593820",
"M  c #603F20",
"N  c #3C4200",
"B  c #464500",
"V  c #584508",
"C  c #4D5200",
"Z  c #5D4A10",
"A  c #65480B",
"S  c #655609",
"D  c #64421C",
"F  c #6A471B",
"G  c #744E1C",
"H  c #754D14",
"J  c #725617",
"K  c #6D5311",
"L  c #767E02",
"P  c #6E7C1B",
"I  c #736E10",
"U  c #5F4024",
"Y  c #654423",
"T  c #6A4622",
"R  c #6C4924",
"E  c #674629",
"W  c #724D24",
"Q  c #714E28",
"!  c #7A5422",
"~  c #73532B",
"^  c #785325",
"/  c #725333",
"(  c #7B5A37",
")  c #6D4E35",
"_  c #7A7824",
"`  c #6F772F",
"'  c #7B6943",
"]  c #847A02",
"[  c #927A1F",
"{  c #867519",
"}  c #825B28",
"|  c #825C36",
" . c #84672A",
".. c #85623B",
"X. c #8B6938",
"o. c #936D3C",
"O. c #9A773C",
"+. c #937D28",
"@. c #815E42",
"#. c #8B6842",
"$. c #916B43",
"%. c #977345",
"&. c #977654",
"*. c #A27B47",
"=. c #A67B51",
"-. c #6D8300",
";. c #6D8A00",
":. c #6E820C",
">. c #728601",
",. c #748B00",
"<. c #7A8D01",
"1. c #73850A",
"2. c #758B0B",
"3. c #7A890C",
"4. c #769300",
"5. c #7C9501",
"6. c #7D9A00",
"7. c #7D940B",
"8. c #7B9709",
"9. c #738314",
"0. c #778719",
"q. c #7D9218",
"w. c #6F8614",
"e. c #768525",
"r. c #7D9030",
"t. c #7C8443",
"y. c #7B8069",
"u. c #888609",
"i. c #819501",
"p. c #829B01",
"a. c #82930A",
"s. c #849B0B",
"d. c #899C07",
"f. c #849413",
"g. c #879815",
"h. c #95991B",
"j. c #858C1A",
"k. c #A59C1E",
"l. c #A59C0F",
"z. c #84A201",
"x. c #8BA502",
"c. c #8DAC02",
"v. c #8CA50B",
"b. c #8CAC0A",
"n. c #86A707",
"m. c #92AD02",
"M. c #92AC0A",
"N. c #96AA07",
"B. c #8FB104",
"V. c #93B103",
"C. c #9BB504",
"Z. c #9DBA04",
"A. c #94B20B",
"S. c #9BB40C",
"D. c #9DBA0C",
"F. c #8EAB12",
"G. c #8CA719",
"H. c #94AC13",
"J. c #9AAE12",
"K. c #96AA1D",
"L. c #94B213",
"P. c #9CB413",
"I. c #9DBA14",
"U. c #9DB21B",
"Y. c #9DBB19",
"T. c #8DB111",
"R. c #A1B502",
"E. c #A2BB05",
"W. c #A1B60D",
"Q. c #A2BB0B",
"!. c #ABBD0E",
"~. c #A3A918",
"^. c #A2B514",
"/. c #A2BB13",
"(. c #A2B41C",
"). c #A3BB1B",
"_. c #AAB71A",
"`. c #B3A81B",
"'. c #858836",
"]. c #8D902B",
"[. c #B09833",
"{. c #99A925",
"}. c #96A82D",
"|. c #A8AB26",
" X c #A5B626",
".X c #AEAF31",
"XX c #9FC10A",
"oX c #A6C10B",
"OX c #A6C215",
"+X c #AECA1B",
"@X c #ACC517",
"#X c #B2CA14",
"$X c #B3CC1B",
"%X c #B3C717",
"&X c #B5D21D",
"*X c #B9D31A",
"=X c #B2CB0F",
"-X c #ACC521",
";X c #ADCA27",
":X c #B3CC22",
">X c #B4CD2C",
",X c #B8C82A",
"<X c #B5D224",
"1X c #BAD522",
"2X c #B5D22C",
"3X c #BBD92A",
"4X c #B8CC34",
"5X c #BAD332",
"6X c #BAD339",
"7X c #AECD2F",
"8X c #C1D72A",
"9X c #C1D838",
"0X c #828944",
"qX c #91904E",
"wX c #AE8B58",
"eX c #AE9152",
"rX c #9FAE52",
"tX c #A5B34A",
"yX c #A7A958",
"uX c #AEAF4E",
"iX c #918B67",
"pX c #B59865",
"aX c #AB9873",
"sX c #A6AC69",
"dX c #AEB071",
"fX c #9FAC76",
"gX c #C5AD49",
"hX c #C6B354",
"jX c #C6B14E",
"kX c #C19C6D",
"lX c #CAA777",
"zX c #CCB06B",
"xX c #BACB47",
"cX c #BCD144",
"vX c #B7C953",
"bX c #B9C966",
"nX c #C3CD48",
"mX c #D3CA71",
"MX c #E5DC7D",
"NX c #B0AD8E",
"BX c #C7AB87",
"VX c #E0BA8D",
"CX c #BCC78E",
"ZX c #BCC3A1",
"AX c #D8C897",
"SX c #DFD580",
"DX c #E1D19E",
"FX c #EAC086",
"GX c #FFDDA9",
"HX c #FFEBB5",
"JX c #FFE2A9",
"KX c #EDE286",
/* pixels */
"R.i.<.0.ZXNXfXr.7.s.p.4.4.H.B.n.T.;.;.6.6.6.Y.L.C.Z.c.x.i.q.` CXNX' w.-.6.I.S.Z.OX<X6.4.i.6.>.2.xXs.",
"!.N..Xq.t.qXe.r.7.6.a.4.8.b.b.T.G.4.4.6.6.6.6.I.D.C.C.9X>.1.e.` t.P w.4.7XA.D.D.A.6.4.6.p.6.,.>.<.>.",
"!._.,X9X;.7X;.8.p.5.6.p.M.T.A.b.T.6.6.6.5.5.d.J.L.).J.i.5.,.w.vX:.0.-.>.>.P.P.p.p.6.6.6.M.i.5.J.$XE.",
"^.i.<.<XB.2X3X6.6.6.a.,.i.b.n.6.6.6.8.6.p.i.p.H.U.J.U.i.,.>.-.cX<.-.,.,.5.x.5.P.P.4.z.L.p.5.x.P./.W.",
"4X5.M.A.n.B.B.n.v.i.8.s.6.6.6.B.<X6.5.i.z.p.4.U.U.p.P.;.>.H.-.M.;.6X4.>.i.5.6.5.4.x.N.J.W.J.5.^.P.U.",
"xX>.,.n.T.A.;Xb.6.i.s.5.4.6.6.6.oX#X#Xp.OXI.a. X X5.;Xm.M.,.^.M.,.>X4.5X,.p.i.>X:X:XA.)./.S.).>.5.>.",
"sXrXtXcX5.5.6.6.6.6.6.p.6.6.6.5.Z.Z.D.M.>X_.g..X.X|.>X6.OXc.c.c.M.b.c.3Xz.5.s.6.P.P.^.J.S.^.5.,.>.,.",
"r.w.q.-.p.6.i.5.p.5.p.6.6.6.6.6.6.Q. X Xu.u.r { I B |.|. XK.H.M.m.c.m.c.6.p.8.U.5.(.P.J.5.>X2Xi.s.>.",
"q.8.8.6.i.6.5.5.5.6./.p.5.i.6.>X$X_..Xr [ +.'.e # pXK S @ ].{.H.N.x.A.S.;XB.6.6.,.i.U.i.;X6.6.6.6.5.",
"8.6.p.6.6.6.p.p.U.P.:X<Xx.,Xi.i.^.|.{ O.O.3 - # y 4 & & ! S . xX(.N.x.M.B.3X7X8.2.f.>.-.p.p.p.6.p.6.",
"p.6.p.6.i.i.5.A.P.I.Z.OXi.d.R.%Xe [ %.# o - & 9 ) t 4 : & - A I h.a.9Xp.B.n.;.tXtXtX2.>.>.8.,.5.5.6.",
"6.5.<Xp.5.i.P.I.S.Z.S.<X1X`.8XL jX%.X - = - i 7 ( 9 a p i # 3  .C h.a.i.z.6.7.w.e.w.>.3.,.4.<.5.z.A.",
"$X6.oXC.5. Xv.6.D.S.S.^.J.~. XuXzX  ; = 2 ; a d / h p f p = , : '.S nXa.6.,.6.,.s.xX,.,.>.,.5X3Xc.M.",
"8X*X*XE.i.2XI.D.6.A.).P.W.|.@ eX@ ; 2 @ p # f g ( t t p g , * = O > @ ].f.;.p.;.;.P.U.J. X,.m.V.c.B.",
"=X*XV.!.Z.*Xp.6.D.A.U.i._.|.uXJ X X p , h # x g #.g k l 9 7 i a X x Z 1 ].s.;.>.,.>.).J.^.W.3XZ.m.c.",
"C.=X!.W.Z.Z.&X$X6.6.6.i._.k.zX+ , O g & x : h l ' k z b l 7 a p s - g . }.v.s.,.4XM.^.W.S.W.Z.XXD.A.",
"m.m./.S.E.$XI.i.6.6.i. X.XL eXO , , g 4 z 3 z j ..D Y z z c a a E : ( V {.L.F.F.5X,.M.U.P.).Z.Z.c.b.",
"C.!.Q.D.C.m.5.i.p.-.6.a.k.jXZ + , a k : m 3 j D | Z R D Y k h h / 6 &.B {.v.b.F.H.-.<.,.,.z.OXD.I.M.",
"E.Z.D.D.#X#X&X4.-.4.;.<.k.[.u ; , m Y , Y 5 D F | D ( T Y l l x ~ & 3 r {.4XF.{.9.P e.e. Xs.A.I.6.L.",
"E.Q./.6.*X*X4.&X4.>.1.a.] hX0 : 7 m U 3 E 5 R b | D ( F D j z j ~ w o ; 1.z.;.f.rXdXsXP 7.5.OX6.Y.6.",
"C.6. X-.p.x.6.1X<X5X;.>.] jX& - g l E 9 Y 5 Q T ..F ..T T z z z ~ 5 w V q.s.>.>.sXsXdX].7. X5.>.5.6.",
").i.p.p.4./.3Xm.C.<X2XH.`.uX% aX$ 9 E 4 T w F W X.F ..T R D D D G q u  .P s.s.>.0.e.P 0.>.4.>.7.6.4.",
"5.5.6.5.,.i.5.c.x.3X<XM.k.jX% pXlX# T w Q 4 W W $.G ..W W D D Z G wXu { C a.4.5X,.cX>.<.>.,.5.5.4.6.",
"i.>X6.,.d.-Xx.N.m.m.m.J.k.jX: pX$.6 kX5 W 5 ! ! $.F o.W W D b n wXkXH K P f.5.1X<X-X4X-.-.,.-.,.6.6.",
"i.$X@X6.i.:Xi.c.,.W.4.>.] hX4 pXA } } JXH w } b %.G #.W W b T b b 3 w v C j.5XZ.S.P. XU.2.1.,.p.p.6.",
"!.i.=XoX#XZ.8X^.N.S.W.,Xu.jX5 kX*.5 GXwXHX3 } } %.! o.W Q b T n T w | 3 B q.5.6.I.P.s.{.1.>.,.,.U.p.",
"Q.E.R.Z.E.!.C.W.W.^.*Xi.`.gX3 wX5 kXq H } GX} b %.W $.R W n Y j W q } V B q.6.P.i.>.,.<.>.<.,.5.-Xp.",
"oXZ.E.E.R.R.OXW.!.W.Z.!.`.gXq O.5 A } q wXlXGX} } R $.W Q h b j W q o.r N q.4.L.>.>.>.>.>.-.,.p.+X&X",
"*XC.1XZ.I.W.Q.Q.D.Q.Z.R.l.[.3 X.H v eXv } } H 3 ^ T $.R T c b j F q X.r 1 }.{.n.v.,.>.,.,.s.5.5.+XZ.",
"c.&XZ.D./.).A.Q.C.oXZ.W.k.[ 3 | o.FX*.O.lXb FX5 ~ T $.b Y w b h G 6  .r tXG.G.G.8.4.4.8.8.,.>XP.V.V.",
"A.c.B.V.6.i./.Z.z.Z.Q.i.S } 3 / v } } } 5 =.5 W Q M @.b T 5 b h Y 5  .r G.T.b.z.g.4.i.5.p.6.-XI.b.c.",
"c.A.S.3X6.n.I.Q.p.Z.i. Xu X.3 M 5 w 5 *.n 3 W W b b #.M M 4 n h z 5 n ].{.b.p.6.8.p.5.z.5.6.4.z.4.D.",
"A.7XI.5.4.6.A.d.V.8Xi.|.> X.% z 4 5 BX3 M d T T b b @.m m 7 l u lXH H A h.s.i.i.i.p.6.6.6.p.8.,.;.M.",
";.G.2.1.2.6.:X#XE.i.>Xh.;  .% z &.: d 3 m 3 n b T l ( l l * k t pXJ H u j.7.>.J.i.p.6.4.6.6.s.,.F.F.",
"}.e.sXsX:.7X#XR.C.S.I.K.; ( # g # z h d l 3 b b ~ h / s g : h 8 9 - } u P 3. X XU.4.2X6.5.<.s.-.,.-.",
"e.'.r.0X2.p.$XZ.N.M.x.{.; ~ ; + 4 j h 4 l - c n / h / a f : h 8 a & ..& j.1.4.J.).P.A.Z.i.6X>.<.>.<.",
",.L L j.-.+XE.#XA.p.6.f.@ / @ @ , 8 s * s & k h / h ) i s * m , 8 : #.> L -.>.H.L.A.I.I.2XP.d.>.>.>.",
">.>X<.,X:X6.C.$Xi.6.6.f._ R @ ; * k a # s # 9 h ) c ) a i i g , % 0 ( e r.-.-.4.).P./.A.^.<.<.i. X>.",
"!.*X%X#X6.P.i.i.p.4.6.g._ x : ; * i i # a o s c ) a M a i a a , * % #.e 0Xe.0. XU.x.6.^.I.i._.>. X4.",
"E.R.!.E.D.Y.6.i.5.z.4.g.< V % = : i p o a # 8 7 / p m a i i i * = : ~ e ' 0Xe.>.i.i.5.i.6.^.I.W.,.I.",
"E.Z.Z.<XXXXXp.6.6.6.6.a.< y % O 2 , 2 O < @ > > e 0 0 ; < ; ; ; ; # Y e sXyX0.a.>.i.^.x.6.A.oXE.I.D.",
"Z.D.c.3XZ.3XZ.Z.Y.5.6.f.; y   aXaXdXBXAXAXAXDXDXAXAXAXAXAXAXAXBXaXiXY 1 '.9.L s.>.i.^.^.x.D.E.<XZ.V.",
"c.D.c.c.3Xc.C./.6.6.6.a.1 e . 1 B U Z Z K Z A Z V r V V Z y : e > 8 2 ; f.>.5X6.<.i.x.W.D.Z.z.C.V.B.",
"A.v.B.B.c.&Xz.5.5.6.;Xn.tX_ dXzXlXmXSXMXKXMXMXMXmXmXmXhXuXyXyXyXqX0X( I 6X1X<X6.6X5.8XC.Z.XXoXS.c.c.",
"L.n.A.B.V.*X>X5.6.-X$Xm.U.u..XxX>.3..X X X(._. X,X-X9XnXs.a.f.{.~.K.k.{.T.n.B.b.i.5XW.oXXXV.Z.oXA.c.",
"H.H.A.z.i.c.i.d.6.;X+X+X{.{.}.L >.L ,.S.!.E.W.S.!.Z.*X5.6.6.z.v.A.N.N.c.XX6.A.B.b.M.S.C.6.XXQ.V.XXn.",
"b.4.Y.5.v.d.5.6.6.6.6.8.9.e.e.0.3.(._.<.$XW.!.Z.E.C.Q.1X5.6.T.4.b.b.N.v.6.XX6.<XC.2Xp.i.L.Y.6.I.I.6.",
"M.4.4.5.s.<.d.6.6.6.,.7.w.bXrXtX3.<.<.-Xi.%XW.i.E.W.D.@X5.4.}.r.7.F.5.H.T.6.6.B.6.6.i.i.6.6.i.^.Y.5.",
"5.,.;.4.s.4.p.p.i.5.p.,.4.G.9.L xX>.<.i.i.$Xi.m.S.D.OXi.p.q.CXfXe.1.7.4.8.6.p.A.6.I.i.5.p.6.6.Y.6.6.",
"4.,.>.,.7.,.p.5.8.p.5.5.>X6X1.}.4.,.1.4.5.i.^.^.S.<X).6.8.9.NX' e.w.2.2.p.p.A.I.P.M.p.s.5.z.A.6.6.6."
};
