/* XPM */
static char *_9ca76d392df4121a1b1284a6b600455jhvFzMPRyInb7781[] = {
/* columns rows colors chars-per-pixel */
"50 50 186 2 ",
"   c #647C00",
".  c #6C7F00",
"X  c #6E7F0F",
"o  c #6D7A1E",
"O  c #677418",
"+  c #727F1D",
"@  c #6E7D20",
"#  c #68742A",
"$  c #727F21",
"%  c #727F34",
"&  c #6C7242",
"*  c #767E45",
"=  c #7A7F69",
"-  c #6D8400",
";  c #6F8800",
":  c #6E810C",
">  c #728501",
",  c #748B00",
"<  c #798D02",
"1  c #73850A",
"2  c #768B0B",
"3  c #7A8D0C",
"4  c #759200",
"5  c #7C9501",
"6  c #7E9900",
"7  c #7C950B",
"8  c #7E990A",
"9  c #6F8216",
"0  c #748414",
"q  c #788712",
"w  c #768812",
"e  c #798C14",
"r  c #73831B",
"t  c #79861C",
"y  c #7C8E1B",
"u  c #7F9314",
"i  c #7D921C",
"p  c #738222",
"a  c #7A8624",
"s  c #788921",
"d  c #74822C",
"f  c #788529",
"g  c #7C8C2B",
"h  c #778138",
"j  c #7C883E",
"k  c #79833E",
"l  c #7A8342",
"z  c #819601",
"x  c #829B01",
"c  c #81950C",
"v  c #839A0B",
"b  c #819513",
"n  c #8B9E16",
"m  c #82971A",
"M  c #839912",
"N  c #85A101",
"B  c #8AA401",
"V  c #8DAB03",
"C  c #87A40A",
"Z  c #8CA40B",
"A  c #8EAB0B",
"S  c #92AC02",
"D  c #9BAF00",
"F  c #92A609",
"G  c #93AD0C",
"H  c #98AE0B",
"J  c #94B103",
"K  c #9CB503",
"L  c #9DB903",
"P  c #95B10B",
"I  c #9CB50C",
"U  c #9EBA0C",
"Y  c #8DA611",
"T  c #8DAA11",
"R  c #93AC13",
"E  c #98AE15",
"W  c #90A218",
"Q  c #92A91C",
"!  c #95B211",
"~  c #9CB413",
"^  c #9EB914",
"/  c #9CB31B",
"(  c #9FBA1B",
")  c #A0B705",
"_  c #A2BB04",
"`  c #A8BB07",
"'  c #A1B70B",
"]  c #A2BB0B",
"[  c #A9BE09",
"{  c #A0B613",
"}  c #A3BB13",
"|  c #A9BD14",
" . c #A1B51A",
".. c #A4BC1B",
"X. c #A8BE1D",
"o. c #818F2E",
"O. c #809421",
"+. c #818C3C",
"@. c #8B953F",
"#. c #8DA328",
"$. c #9BAD21",
"%. c #9BAF29",
"&. c #95A529",
"*. c #9DB024",
"=. c #9DB12A",
"-. c #98A937",
";. c #A2B623",
":. c #A4BA22",
">. c #A1B62C",
",. c #A4B43A",
"<. c #A3C005",
"1. c #AAC006",
"2. c #A6C10C",
"3. c #A9C10B",
"4. c #B0C60C",
"5. c #B0CA0F",
"6. c #A5C214",
"7. c #ACC514",
"8. c #AECA14",
"9. c #A7C418",
"0. c #ABC51B",
"q. c #AEC91C",
"w. c #B0C717",
"e. c #B4CB14",
"r. c #B0C71B",
"t. c #B3CC1C",
"y. c #BCD416",
"u. c #B4D21D",
"i. c #BAD31D",
"p. c #BDDA1D",
"a. c #ADC625",
"s. c #AECA24",
"d. c #ADC929",
"f. c #B0C626",
"g. c #B2C921",
"h. c #B3CC24",
"j. c #B9CF24",
"k. c #B1C629",
"l. c #B2CB2B",
"z. c #B9CF2C",
"x. c #B5D025",
"c. c #BBD424",
"v. c #B6D12C",
"b. c #BBD52B",
"n. c #BDDA2B",
"m. c #AEC431",
"M. c #B5CD34",
"N. c #B8CF37",
"B. c #B7CF3B",
"V. c #B9CE3C",
"C. c #BAD433",
"Z. c #BDD833",
"A. c #BCD43A",
"S. c #C1DA27",
"D. c #C2D82E",
"F. c #C2DD36",
"G. c #808A43",
"H. c #878F53",
"J. c #8C9657",
"K. c #9EAB59",
"L. c #A4AF4F",
"P. c #A6AF5E",
"I. c #A5B355",
"U. c #A9B858",
"Y. c #899071",
"T. c #9FA869",
"R. c #9DA56C",
"E. c #A0A761",
"W. c #A2AD64",
"Q. c #A3AC6B",
"!. c #A9B16E",
"~. c #A2AA72",
"^. c #A3AD7C",
"/. c #A9B07C",
"(. c #ADB673",
"). c #B1C740",
"_. c #BBCE45",
"`. c #B9CC4C",
"'. c #BDD344",
"]. c #BBC773",
"[. c #C1CF60",
"{. c #A6AA8C",
"}. c #A2A683",
"|. c #BDCB8D",
" X c #BBC590",
".X c #BBC199",
/* pixels */
"I 5 - p .X{.~.g 5 x 8 5 5 A F A R , 4 6 6 6 ~ ~ ) K B S 5 y #  X~.k 0 - x I P I 9.t.x 5 v c > , V.v ",
"| H m.y j J.d O.5 6 5 4 v A G A R 5 5 4 6 5 x ~ I ) ) h., e @ % G.O w , z.H { P I 6 5 5 v 5 , > < > ",
") 0.g.A., ).5 5 6 4 6 8 A G A A G x 5 5 x x x ~ ~ ~ ~ x v - 2 `.: e - > , / ~ x x x x x R 5 z R g.) ",
"' z , j.S x.F.6 5 6 v 4 6 A V 6 5 x x 5 6 5 5 H {  ./ z , > > A., - > , 5 Z 5 ~ R 5 x R x 5 B ~ | ) ",
"z.5 F H F G A B A 6 4 v 6 6 6 A q.6 6 5 x 5 B ~ I 5 E , - Y > R > '.> > 5 6 6 5 6 B I P ~ ~ 5 ..~ ~ ",
"`., < Z R R d.A 6 6 6 6 4 6 6 6 2.7.r.x k.~ 5 U ) x z.F R 5 ! A , M., B.> x x h.h.q.K U U I ~ > 5 > ",
"P.I.,.'.5 5 6 6 6 6 6 6 6 v 6 x ' ] ) S t.K x _ [ ) 0.5 ..A F G G G A A.x 5 x 5 ~ I U K I } 5 > > > ",
"+.$ i > 6 6 6 6 6 5 6 5 x 5 z x x ] ) ] x L i.3._ _ 3.I } S A S V V P A x 6 x ~ 5 ^ P J 6 l.C.x v > ",
"M 7 7 5 6 x 5 5 5 6 ] x 5 z z k.g.] ] L [ ) i.) ) _ _ [ ) V J V J S V ^ s.V N x , 5 / 5 d.5 x 5 5 5 ",
"5 6 v 6 6 6 v x ~ J p.e.B l.x z ] ' ) K ] ] i.L 3.) K K [ L L u.L J V S S Z.C.5 , u > - x x v 5 x x ",
"6 6 6 6 6 5 6 G J L J 3.5 z [ y.4.` K | | U ) ) ] w.| B I U L x G 6 C.6 A R : U.I.I.w > > 5 < 5 5 6 ",
"6 6 l.x 6 6 ~ ^ L L L c.b.| e._ _ 3.| I ^ I ' K I t. .~ ~ x q.6 Z 5 5 B x v i r p r : 3 > 5 5 5 N P ",
"k.6 <.L 6 ..Z 5 ~ P ~ ~ F ~ ] K x K I } I x L ) I ~ , n $.5 a.N x Z Z.5 6 > M - n _.< , , , b.b.V P ",
"D.t.y._ x c./ ;.x ~ /  . .H ' ) ) c.x ~ 5 z U J I ..> , > - x 5 6 5 6 x 5 , 5 , > / / E :., S J V V ",
"e.i.K 1._ i.x 5 E  .~ 5 ~ I K ) K i.C.x c - :.> .. ., > > , 5 v 5 Z.b.5 C 6 > , > > :.~ ~ I S.L J V ",
"K e.` _ _ K j.k.x 5 x x I I I I L 6 x Q 3 w X 0 1 1 , , , > 5 x x 5 5 P V C x > N.G ~ ~ ~ ' K ] ^ A ",
"D S [ K ) t. .z z x x } 9.b.^ P U 6 x 5 3 p R..X^.W.t , > 5 x 5 z x x A G G Z G C., G ~ ~ ..L L V V ",
"K ] _ _ _ S 5 x v - z x B ~ ( x P I ^ / - o /.{.}.Q.0 - , a.> x 5 x 5 A A V ! R R - , , , B 6.U ^ P ",
"| K ) L 5.e.j.5 , , > 5 x 6 5 ~ a.5 6 5 > m O o + w / 5 s.V 5 v.b.b.5 x C v.G Q 9 p a t >.x J U 6 ! ",
"U ] ] x i.i.4 x.> > > x > , 5 x Z 5 x 5 x 5 > =.*.:.J 8.6.J V I L 5 M.x N B - m P.(.T.o u z ..x ^ 6 ",
"I 5 ..- x B 5 c.b.Z., - - v 5 6 5 x 5 x ~ ~ R 5 { ' L L ) I 5 I L ' A., 6 6 > : K.Q.!.@.q >.5 ; 4 N ",
"..5 x x 5 | b.S S b.v.R / > x x 5 5 x 5 6 ^ } H K J <.L K ' | z L I x / x 6 5 2 t p $ a 1 < > x 6 4 ",
"5 5 5 5 > 5 6 B J x.b.R Y 5 x 5 x x 5 x x P ~ ~ { K K 2.) ' { B } I H 6 6 6 6 l., A.> < > , 3 5 , 6 ",
"x l.5 , x a.B J S S H A R x 5 x x 6 5 6 x ^ ~ 6 x P U U ) I ' } 5 I } P 6 6 5 n.x.q.z.> > , - , x 5 ",
"x s.0.x 5 t.x S > ~ z > > , G 5 6 x 5 x C.6 G 6 5 x.S ) ) ) [ x x U S x 6 6 C.^ I I ~ / < , > x x 5 ",
"K B 7.] t.) c.) S { ~ k., k.x x Z.6 5 6 5 5 x x x 6 0.t.K L K ) ' ^ 6 5 x 6 5 6 ~ ~ Z $., - > , ~ x ",
"3._ K _ K [ ) ) I I j.B I x } 5 v.x.b.N l.x 6 5 5 x x 6 2._ 2.' x 6 a.M.5 6 v R x - , < > 2 , 5 q.x ",
"2.L _ _ ) ) | ' ] ) ) K 7.B I { I N K t.U 6 v 5 v 5 x I K L ] I ~ ~ ..6 4 v 4 R > > > > > - , x q.u.",
"u.K i.L ' I I ' L _ _ _ _ U { ~ { K _ 2.I k.5 v 5 6 R h.K 2.I | } q.q.B A A C Z x , , > , v 5 6 q.U ",
"J t.U ' U } ' ' ) ) 2.K K } 5 ~ ~ | K K x.x 6 5 v 6 5 5 7.L x x 5 x J J P A ! A 6 5 < 5 5 > h.I J J ",
"J S J S N x U U x U ^ x a.> 5 , ~ ~ ' I ~ P U x.6 6 6 x i._ c.x x 5 A A V V V N N 5 v 5 v 5 0.U S V ",
"V J I v.6 B ] ) x I 6 / :.- , > <  .~ , ~ ^ I 9.x 6 V J u.S 6 v.5 x R 5 P A 6 6 5 v 5 v 5 6 4 N 4 U ",
"P v.~ 5 , x K N L x.6  .5 v > > , *., < z 5 R x 6 6 A 6 V S 6 6 6 5 x 6 x 6 x 5 5 5 x 5 5 5 5 > , A ",
"- Q 1 1 < x t.8.U 5 b.x C.5 > , , < , , > > 5 5 6 6 x 6 6 6 5 6 5 5 5 5 > x   :.x x C 5 x 5 v , Y T ",
"-.p !.W.1 l.q.L H  .H S u.J > - , > , > , < 5 6 8 4 6 6 5 x 6 5 5 5 , 5 , , ( P P 5 v.x 5 , v - < - ",
"0 o.l +.2 x t.L ~ F S J J h.> , '., , > > v 5 x 6 x 6 x 5 5 6 x 5 v - > > - 5 ^ } U P ~ x A.> < > 2 ",
"< > 1 3 > g.U q.P 6 x 6 R R R A., ; > , 5 > 5 6 x 6 v.5 B 5 x ~ N M.> 3 > > , Z H P } ' z.~ v , , , ",
"> z., h.g.x K t.6 x x x , R P V G A R 5 - 6 x 6 6 N b.J B I x h.x ~ 2 0 r 0 . 5 :.~ } K ' , < z ;.> ",
"[ t.w.w.x I x x x 5 , 6 Z A P V V P A x x 6 5 ~ B G P } I P I | ~ > f W.l h a &.*.Z z { ' x } , ..5 ",
"_ K 3.) K ] 6 x 5 6 x 6 6 V V S V G d.h.b.l.6 ^ v.^ ~ I ~ ^ P ~ B %.d * & H.f w c z 5 x z ] ' } , ^ ",
"} ' ) t.] ' x x 6 x 6 5 6 G V V R Z T C Z 6 x ~ ~ x P ~ } I P X.< 1 ].T.Q.P.r b , 5 ..B z L } { { ^ ",
"{ I S c.) n.I ~  .5 x x 5 4 N A 6 x 5 5 ..6 5 ~ 6 H x 5 ~ ~ { A.5 - s o f r 2 5 , x { ' B ] ' z.P J ",
"S ~ V V c.V I } x 5 x 6 5 v - 5 > 5 , x ~ x I x S x x x ~ ~ 5 x 5 x - Q v > A.6 > x N L _ L B P J J ",
"G S F S V i.N 6 6 5 h.x / 5 > > > 5 ~ | I ' ] U K x 5 x x 5 5 R x R 6 P Z.h.h.x C.6 b.K L _ 6.I V V ",
"P V G G S u.x.6 5 b.7.U ~ 4 / B., 5  .} | ] K L w.7.b.x.6 x 5 A G A A C G P V P 6 v.^ } ] K L U J V ",
"P G R N x V 6 x 6 0.b.9.~ / =.- , > , { ) K 3._ _ S x.N x 5 x A A G A G A V V P S S ~ P 6 6.U J U V ",
"A 5 ( 6 A B 6 5 x 5 5 5 1 0 + t , :..., r.[ K _ ] L } h.6 x G 6 A P A A A ! V 9.J v.x 5 !  .6 I ~ 6 ",
"T 4 , 6 x 4 x 6 5 v > c 1 [.I.L.c , , f.x 7.) x L ) } ..5 v #.i 8 T 6 T A 5 6 J 6 x 5 x 6 4 B ~ ( 6 ",
"5 > - , 8 4 6 6 x 5 x , < W w : _.< , x x 0.x S I I 9.x x i |.^.g 1 7 4 4 6 x P 6 ~ 6 5 6 6 6 ^ 6 6 ",
"4 > > , 8 , 6 6 5 x 5 6 z.A.2 #.< , > < 5 6 / ~ I j.} x 5 9 Y.= % 0 2 5 6 x G { ~ F x 8 5 x P x 6 6 "
};
