/* XPM */
static char *_f161ed173f74137bbda41d51b523bec[] = {
/* columns rows colors chars-per-pixel */
"50 50 256 2 ",
"   c #1C0300",
".  c #250600",
"X  c #391B00",
"o  c #2F1F00",
"O  c #3A2500",
"+  c #490600",
"@  c #580E02",
"#  c #491701",
"$  c #581503",
"%  c #670500",
"&  c #750900",
"*  c #651607",
"=  c #731E0E",
"-  c #582905",
";  c #5B2C12",
":  c #4E3100",
">  c #683503",
",  c #693818",
"<  c #712E0B",
"1  c #6C3327",
"2  c #5A282B",
"3  c #554800",
"4  c #794619",
"5  c #745310",
"6  c #6A7B1C",
"7  c #757D1A",
"8  c #716C0D",
"9  c #774627",
"0  c #7B5338",
"q  c #73512C",
"w  c #797C29",
"e  c #717934",
"r  c #73712A",
"t  c #706443",
"y  c #870D00",
"u  c #851402",
"i  c #951F11",
"p  c #8F2E15",
"a  c #B12C17",
"s  c #AF3923",
"d  c #8D2621",
"f  c #D43518",
"g  c #CC3524",
"h  c #E2391C",
"j  c #894E16",
"k  c #897817",
"l  c #886F07",
"z  c #A67013",
"x  c #97592A",
"c  c #895938",
"v  c #945D38",
"b  c #8B4E2B",
"n  c #A55A29",
"m  c #A55737",
"M  c #AE4831",
"N  c #97653B",
"B  c #987638",
"V  c #8A6A2C",
"C  c #A26839",
"Z  c #B46C32",
"A  c #D24E32",
"S  c #EB5530",
"D  c #D06F3A",
"F  c #F0673A",
"G  c #895A46",
"H  c #915C45",
"J  c #8D6747",
"K  c #9A724A",
"L  c #9A6954",
"P  c #9C7658",
"I  c #926E48",
"U  c #A96947",
"Y  c #A77755",
"T  c #B0734F",
"R  c #AA7B68",
"E  c #BF5D52",
"W  c #D47150",
"Q  c #F2714C",
"!  c #DA624E",
"~  c #6D8400",
"^  c #6E8A00",
"/  c #6F840A",
"(  c #738502",
")  c #748B00",
"_  c #7A8C01",
"`  c #758A0B",
"'  c #788809",
"]  c #759300",
"[  c #7C9501",
"{  c #7D9A01",
"}  c #7D940A",
"|  c #7E9A0A",
" . c #769A00",
".. c #74811C",
"X. c #778713",
"o. c #7D9315",
"O. c #6D8216",
"+. c #7DA101",
"@. c #768425",
"#. c #788536",
"$. c #7B9226",
"%. c #7D8842",
"&. c #7B8069",
"*. c #868B06",
"=. c #948907",
"-. c #829601",
";. c #829B01",
":. c #899B01",
">. c #839A0A",
",. c #879609",
"<. c #8A891A",
"1. c #859515",
"2. c #989C13",
"3. c #A4981D",
"4. c #A38509",
"5. c #84A202",
"6. c #8CA402",
"7. c #8CAB03",
"8. c #8CA60D",
"9. c #8DAC0B",
"0. c #86A706",
"q. c #92AC03",
"w. c #92AD0C",
"e. c #98AC06",
"r. c #8EB10A",
"t. c #93B205",
"y. c #9CB403",
"u. c #9DBA03",
"i. c #93B10B",
"p. c #9BB40C",
"a. c #9DBA0C",
"s. c #94B80B",
"d. c #8CA613",
"f. c #93AD12",
"g. c #9CAB13",
"h. c #96A919",
"j. c #95B513",
"k. c #9CB413",
"l. c #9DBA13",
"z. c #9CB31C",
"x. c #99B918",
"c. c #8DB314",
"v. c #A2BB04",
"b. c #A2B50B",
"n. c #A2BB0B",
"m. c #A8BB08",
"M. c #A1B514",
"N. c #A3BB13",
"B. c #A2B51B",
"V. c #A3BB1C",
"C. c #A9B618",
"Z. c #AAB216",
"A. c #858A26",
"S. c #818A3C",
"D. c #909326",
"F. c #A59B2E",
"G. c #98A627",
"H. c #9CB127",
"J. c #97A633",
"K. c #A6AB29",
"L. c #A7BB24",
"P. c #ADB034",
"I. c #C6BC30",
"U. c #A6C306",
"Y. c #ABC618",
"T. c #B3CD1C",
"R. c #B2C918",
"E. c #B8D21B",
"W. c #B3CB0D",
"Q. c #AEC827",
"!. c #B3CC22",
"~. c #B4CA2C",
"^. c #B7C929",
"/. c #BAD42B",
"(. c #B8D326",
"). c #B8CC37",
"_. c #BBD433",
"`. c #BBD73A",
"'. c #C2D635",
"]. c #C1D32A",
"[. c #C1DB1A",
"{. c #89914B",
"}. c #AC8658",
"|. c #B7865C",
" X c #AF9649",
".X c #A4B452",
"XX c #AEB24E",
"oX c #AB8568",
"OX c #B88963",
"+X c #B7926A",
"@X c #BD9777",
"#X c #B78E72",
"$X c #9EA96F",
"%X c #A6AC66",
"&X c #AAB073",
"*X c #868D6B",
"=X c #D09154",
"-X c #EC8D5A",
";X c #D4AD57",
":X c #E7AD5B",
">X c #CB916E",
",X c #ED9071",
"<X c #D9A766",
"1X c #CDAF78",
"2X c #E6AC67",
"3X c #E2A876",
"4X c #F1B171",
"5X c #BACA47",
"6X c #BCD14B",
"7X c #C6C646",
"8X c #D1CF52",
"9X c #DAC87C",
"0X c #FAC57B",
"qX c #F2C96E",
"wX c #F8EC79",
"eX c #E5CE5A",
"rX c #A98D8A",
"tX c #B6AB90",
"yX c #D8988A",
"uX c #C9A487",
"iX c #D3B08F",
"pX c #FEB689",
"aX c #F0B68C",
"sX c #C9B5AA",
"dX c #FFBCAB",
"fX c #BCC595",
"gX c #CFC58C",
"hX c #FCC784",
"jX c #FED786",
"kX c #FCC797",
"lX c #F9D796",
"zX c #EDCE88",
"xX c #FCE685",
"cX c #FFE59A",
"vX c #F3F398",
"bX c #D8CCB1",
"nX c #FAD6A8",
"mX c #F8DAB8",
"MX c #EDD1AE",
"NX c #FFECA5",
"BX c #FFF3A5",
"VX c #FDE7B9",
"CX c #FFF9BA",
"ZX c #EFEFA8",
"AX c #DCE0BD",
"SX c #FEDAC6",
"DX c #F1DCCC",
"FX c #FBE6C5",
"GX c #FDF5C9",
"HX c #FEEAD2",
"JX c #FDF5D8",
"KX c #E9E4C4",
"LX c #FFFEEB",
"PX c #FFF8E5",
"IX c #FFFEF4",
"UX c #DDD1C5",
/* pixels */
"k.[ ( ..fXtX$X#.o.;.{ [ [ w.9.7.7.^ ) ,.} [ x.t.b.b.6.6.{ o.e gX$X%.7 ( -.M.p.b.Y.^.:.[ ;.[ ` / 5X,.",
"V.f.Q.o.%.{.#.A.[ { { [ { 9.w.9.9.;._ [ >.]  .l.b.p.N._.~ ` w e %.6 X._ ~.p.a.p.p.-.[ ;.>.[ ) ) _ ) ",
"n.Y.!._.) ).[ [ ;.] { { 9.9.w.7.8.[ ;.] [ ;.{ j.M.p.M.[ >.~ ~ 6X/ ` ~ ) ^ j.x.+.+.{ { { 8.{ [ f.!.n.",
"b.-.) (.7.(.'.{ { { { ] { 9.7.{ :.:.[ { { ] { w.p.N.p.-.) ] ^ `._ ~ ) ) [ 5. .j.j.] +.i.;.[ 6.k.N.n.",
"!.[ q.i.6.q.7.6.8.{ { 5.{ {  .7.Y.6.[ 5.;.;.;.x.l.:.b._ ^ d.^ 9.( '._ ( [ [ -.[ [ 5.t.i.p.p.-.B.k.k.",
").( _ 8.f.j.Q.9.[ | { { ] { { ;.U.R.L.,.P.K.<.P.P.=.I.3.J.X.H.h._ ^._ )._ ,.,.~.!.T.p.N.N.p.B.) [ ) ",
".X.XP.5X} [ { { | [ { { | >.| [ y.N.P. XCXGXVX<X-X=X2X2XgXgXF.2.g.w.6._.;.[ :.-.b.p.k.p.p.M.[ ( ) ) ",
"S.6 1.~ >.} | { | [ { [ ;.[ -.,.,.K.jX3XW ,X,X,XpX4XpXaXJXJXgX9XG.h.f.6.;.:.:.k.;.M.k.f.-././.;.;.( ",
"o.o.[ { | { [ { { { a.5.[ -.,.XXzX3X-X! ! Q ,XpXkXkXnXMXPXLXLXPXMXvXG.B.!.q.:.{ ] [ j.{ Q.[ ;.{ { [ ",
"] { { { { { { ;.a.t.(.(.:.5XA.9XaXW ! F Q Q -X4XaXnXmXFXJXLXIXIXJXMXBXG.g./.5X} ) } ) ~ { 5.;.[ ;.{ ",
"| { ;.{ { { { i.l.l.y.N.-.<.gXsXY E A S S Q -X,XJXPXPXbXGXGXJXHXGXVXlXBXF.h.~ .X.X.X` ~ ^ | ] [ [ ;.",
"{ [ (.;.{ { p.l.k.p.n._.5XZXtXDXHXSXS h S F ! FXPXPXPXPXmXVXGXGXVXVXaX3XzXA.$.O.@...( _ ) [ [ [ 5.w.",
"R.;.n.a.{ N.7.[ p.e.N.K.&XbXbXAXDXSXA h h A A SXHXLXPXHXpXpXkXpXkXnXhX4XGXGXA.X.D.5X_ _ ) ) _./.7.i.",
"[.E.E.n.;.!.N.l.;.k.z.J.AXUXKXKXFXSXs f f g A dXSXmXHXT W W W ,XpXkX-X4X>XJXvXO.) z.g.g.L.) q.y.7.7.",
"W.E.y.m.n.(.;.[ p.H.J.ZXsXbXbXmXMX>Xa g a a a a s p d d i p i a s A Q F -XGXGX#.( ) V.k.k.a.].u.q.7.",
"y.W.m.v.v.y.T.!.-.1.{.KXrXsXsXuXdXp i y u u y y & & & % % % % & y a g A D =XJXCX5Xw.k.k.p.a.y.n.a.t.",
"y.q.m.v.b.T.l.{ [ D.AXsXR yXyXyX* * * @ + $ U T >XY c N >XU >XT C U % u A D W CX7X) j.k.a.a.n.a.7.7.",
"y.n.a.n.b.q.[ ;.-.7 JXrX1 = = @ $ @ b R c P oXJ @X+XI @XP >XP 1XY N >XW % A ! -XF.( ~ ) ] ;.N.l.l.i.",
"N.p.l.p.W.W.E.[ _ 7 bX2 = * @ # H c R oXoX#XY @X0 oXoX@XoXuXP OX>XY >XOXW % a W gXw @.$.H.>.l.s.{ j.",
"a.N.V.{ E.E.[ E.) X.>X2 * @ # 0 0 P P L @XJ c 9 , ; - # X - c Y |.Y Y |.T % & M VX&X%X6 1.;.j.+.l.{ ",
"a.{ V.~ ;.6.[ /._.8XN * @ + L P G J L Y 1 # ; , , 4 b b C N ; ; c T K +XOXU & = 1X%X%X{.( L.>.^ ] 5.",
"Y.[ { ;._ L.'.q.q.8X> * @ L Y 0 R G 9 $ 2 . 1 v T <X3X4XhXaX. uX> V OXK K |.% * B w 7 ..( _ _ [ { ] ",
"[ [ [ { ) -.-.6.q.7X> $ $ G P R L 0 ; 1 0 rX# }.<X0XlXcXlXlX.   K 4 }.J +XOX@ $ l ).} ( ' ( _ -._ { ",
":.^.[ ) ;.Q.6.g.e.2.- $ c G 0 P q 0 , G   . . >X4XjXNXBXcXNX  o lXB P J Y j # ;X].R.~.~ ~ ' ( ) ;.[ ",
"-.Q.Y.{ { Y.;.q.) B.=.O # 0 P q q , 9 H . . > <X0XjXBXCXBXcXB . NXNXI P 5 O 7XB.a.a.k.z._ ) ( } -.[ ",
"Z.:.R.U.W.u./.n.q.M.g.7Xo q 0 V q q b v 0 # =X=XZ 2XlXzXlX0XlXcXcXcXV O D.<.[  .s.i.0.z.) ~ ) ) z.;.",
"m.m.y.u.u.U.y.u.n.y.T.-.K.<.O o 8 r N T U =X=X< + n U - x Z 0XjXjXxXXX5X1.,.[ x. .^ ^ _ ) _ ) [ Q.;.",
"m.y.n.n.u.u.U.u.v.v.a.a.N.2.P.P.P.D.B C T Z D Z x $ + >X2XD :X4XqXeXL.[ [ [ [ 9.^ ^ ) ( ( ~ _ :.T.T.",
"E.y.E.u.a.u.u.u.y.n.s.a.n.b.M.B.k.K. XN x n n n m m m m Z Z z z 4.I.!.e.i.i.k.;.5._ ( ( ) ;.-.-.T.a.",
"7.T.u.n.N.Y.y.v.n.N.l.a.n.y.-.p.N.B.F.B 5 j x p < > < < p j j z =.*.q.e.6.0.w.w.-.[ _ } [ ) ^.p.q.t.",
"s.7.q.q.[ ;.a.n.-.M.V.[ Q._ ] ^ z.g.L.K. X}.# # 4 x b v > # j <.*.5.8.w.r.0.f.:.,._ | ] +.{ Q.n.q.7.",
"0.t.p./.;.6.a.n.-.B.-.M.L.~ ^ ) _ B.k.( .XI ; , N K }.OX>XT ;XxX1.] z.] c.9.;.[ -.,.[  . .{ [ 5.) a.",
"t./.k.[ _ ;.s.5.y.(.;.V.[ >.) ~ ) z.^ o.1X9 , 9 +X1XMXnXnX<XqXeX1.} >.[ 5.[ ;.[ -.-.;.{ | [ [ ) ^ 9.",
"~ h.` ` _ ;.T.Y.a.[ /.5._._ ( _ ~ ) ` @.tXG b b uXMXFXGXVX2X:XwXvX1.} >.) [ ~ z.;.;.;.[ >.[ | ) d.8.",
"J...&X%X/ ~.T.y.w.x.i.t.T.t.) ~ _ ( O.S.uXP U x iXSXFXVXGXzX4XxXxXX.o.} ~ ) L.w.y.[ /.{ [ ) >.~ ) ~ ",
"X.A.%.S.` ;.!.y.k.w.7.q.q.!._ ) ).' @.1X+XOX4Xj aXVXJXVXGX4 hXjXwX1.( ( } ~ _ l.N.a.p.p.;.`.) _ ( ) ",
"_ ~ ' } ~ !.a.T.p.[ { { j.f.9._.) _ 7 1X|.|.2X0XaXnXVXMXkX3XjXqXwX7X( ' ( ( ) 8.w.p.M.M.~.k.;.) ) ) ",
") ~.) ~.!.;.p.!.[ { ;.;.) d.w.7.e.h.D.XXV  X:X<X3XiXnXnXN > =X;X3.h.' X.7 X.( [ L.k.V.k.M._ _ ;.z.( ",
"n.T.R.R.;.y.;.;.{ ;.[ { 0.9.i.7.5.9.8.*.5 B C > N K +X1Xc j < > 3.8 A.%X{.#.@.J.H.8.-.B.M.;.N.) V._ ",
"v.y.U.v.u.n.{ { ;.[ | { { 7.7.t.i.9.Q.).XX5 # , , c q 5 4 - = x 3.P.w e t {.@.X.} { [ :.-.N.b.n._ l.",
"n.n.n.T.n.n.;.;.{ { { [ { w.6.7.9.+.c.| G.k 4 + # q 8 V X # n 2Xk 7 gX&X&X%X@.o.) [ M.6.;.y.m.b.N.l.",
"N.p.q.(.n.].l.k.V.[ ;.;.[ ] ;.9.[ {  .[ K.l =XC <X: <.k O >X=X:X;X@.w r #.6 ` } ) ;.n.n.6.m.m.(.p.t.",
"q.p.7.7.(.7.a.N.;.[ { { [ >.^ ,._ [ ^ >.K.3 =X> ;Xk <.<.3 B =Xl 3 X.7 G.d.^ ).;.) { 6.y.v.v.6.y.t.t.",
"q.q.w.q.6.E.5.[ ;.{ !.;.z.[ ^ ( _ ,.k.V.g.*.8 l 3 *.*.*.<.3 3 : 8 ' -.w.(.(.(.;._.[ /.y.u.n.Y.p.7.7.",
"i.7.w.w.t.E.!.{ [ (.Y.a.k.] z.).( ( V.z.V.B.B.Z.C.C.]._.,.*.*.,.d.h.f.w.i.6.7.7.;./.p.N.N.y.a.a.t.7.",
"i.w.f.6.;.6.{ ;.[ Y./.Y.k.z.H.~ _ ) _ l.l.M.p.m.y.v.E.:.;.[ [ w.f.0.w.9.7.9.7.t.q.e.k.k.;.N.N.t.l.7.",
"9.] x.{ 7.5.[ [ >.[ [ } ( X.7 X.~ B.M._ T.y.N.n.U.v.v.T.{ { f.;.9.9.7.r.9.9.i.Y.p./.;.[ k.x.{ a.l.{ ",
"f.] ] { ;.] ;.| [ >.~ } ( 6X.X.X1.( _ !.[ !.N.[ v.v.v.Y.{ | G.o.} f.{ 9.9.{ { i.;.;.[ ;.;.[ 5.a.x.{ ",
"[ ) ^ _ >.] ;.{ ;.[ ;.) [ d.X./ 5X) _ -.:.Q.;.e.y.u.Y.{ >.o.fX&X@.` } _ [ { ;.i.{ l.{ [ ;.{ { l.{ { ",
"[ ) ) _ | _ | [ [ ;.[ [ ~._.` G._ ) ~ _ [ ;.M.k.p.!.N.{ [ ..*X&.e O.` [ ;.;.w.l.k.w.;.;.[ ;.i.;.{ { "
};
