/* XPM */
static char *_275_1eec27fcad91d3ab302498bfbc5834c9a7f1e60834726876f9647e38ee79268d[] = {
/* columns rows colors chars-per-pixel */
"50 50 183 2 ",
"   c #3F1B00",
".  c #411500",
"X  c #441D00",
"o  c #4A1E00",
"O  c #462200",
"+  c #4B2300",
"@  c #4D2901",
"#  c #4D2A0A",
"$  c #512500",
"%  c #532B01",
"&  c #5A2C01",
"*  c #542E08",
"=  c #563106",
"-  c #5D3203",
";  c #5F3A06",
":  c #57320C",
">  c #5C340B",
",  c #5E390B",
"<  c #582F11",
"1  c #5B3612",
"2  c #5D3914",
"3  c #5E3A18",
"4  c #623504",
"5  c #643904",
"6  c #693B04",
"7  c #62360C",
"8  c #643A0B",
"9  c #693C0B",
"0  c #713F0C",
"q  c #633C11",
"w  c #6C3E13",
"e  c #653F1A",
"r  c #683F1F",
"t  c #703F14",
"y  c #643F21",
"u  c #6D410E",
"i  c #71430C",
"p  c #7D4D0F",
"a  c #674115",
"s  c #6D4214",
"d  c #6D4917",
"f  c #67411C",
"g  c #6D441A",
"h  c #6A481B",
"j  c #724513",
"k  c #734814",
"l  c #7C4D14",
"z  c #744519",
"x  c #754B1C",
"c  c #7B4D1C",
"v  c #7E5216",
"b  c #7D521D",
"n  c #764F24",
"m  c #794C22",
"M  c #754E2B",
"N  c #765024",
"B  c #7D5224",
"V  c #7F5A26",
"C  c #76522C",
"Z  c #7C542A",
"A  c #7E582D",
"S  c #795530",
"D  c #7E5932",
"F  c #7E5C39",
"G  c #814F1A",
"H  c #835216",
"J  c #82541C",
"K  c #88561D",
"L  c #86591F",
"P  c #8B5A1E",
"I  c #804F24",
"U  c #835523",
"Y  c #895622",
"T  c #845A25",
"R  c #8B5C25",
"E  c #82562B",
"W  c #855B2B",
"Q  c #8B5D2B",
"!  c #925F25",
"~  c #905D29",
"^  c #845C33",
"/  c #8A5E33",
"(  c #845D3A",
")  c #895F3A",
"_  c #8C6125",
"`  c #86622E",
"'  c #8C612D",
"]  c #916126",
"[  c #92632D",
"{  c #98652C",
"}  c #956B2F",
"|  c #9B692C",
" . c #866135",
".. c #8C6233",
"X. c #85613B",
"o. c #8B633C",
"O. c #8D683C",
"+. c #926532",
"@. c #986633",
"#. c #956A35",
"$. c #996A34",
"%. c #94673B",
"&. c #946B3B",
"*. c #9C6D3A",
"=. c #9C723B",
"-. c #A36D31",
";. c #A57537",
":. c #A5743C",
">. c #A8763C",
",. c #A6783A",
"<. c #AA7B3F",
"1. c #856241",
"2. c #8A6541",
"3. c #8D6A45",
"4. c #936742",
"5. c #926C44",
"6. c #926F49",
"7. c #9C7142",
"8. c #97714B",
"9. c #A47642",
"0. c #A67847",
"q. c #AC7C45",
"w. c #A0774B",
"e. c #A37C4B",
"r. c #AB7D4B",
"t. c #B07D48",
"y. c #A47C52",
"u. c #A97E51",
"i. c #AB814D",
"p. c #B3834C",
"a. c #B8874D",
"s. c #BA894E",
"d. c #A68156",
"f. c #AB8354",
"g. c #A5835C",
"h. c #AC845B",
"j. c #B18451",
"k. c #B38854",
"l. c #BB8E56",
"z. c #B2875C",
"x. c #B2885E",
"c. c #BB8D5C",
"v. c #BD9055",
"b. c #BE925B",
"n. c #AF8964",
"m. c #B48E6A",
"M. c #BE9362",
"N. c #C48D55",
"B. c #C29154",
"V. c #C89456",
"C. c #C2935D",
"Z. c #CC955D",
"A. c #CC9A5D",
"S. c #D19E5D",
"D. c #C29462",
"F. c #C99661",
"G. c #C69964",
"H. c #CE9C61",
"J. c #CB9E6B",
"K. c #D09E61",
"L. c #C39C74",
"P. c #CDA26C",
"I. c #D5A365",
"U. c #D3A36D",
"Y. c #D5A96D",
"T. c #DAA86D",
"R. c #CDA474",
"E. c #C0A079",
"W. c #CCA47A",
"Q. c #CEA97C",
"!. c #D2A473",
"~. c #D8A671",
"^. c #D4A974",
"/. c #DAA875",
"(. c #D1A67C",
"). c #D4AB7C",
"_. c #DAAC78",
"`. c #DDB174",
"'. c #E0B37C",
"]. c #CCAB80",
"[. c #D1A580",
"{. c #D5AE85",
"}. c #D7B184",
/* pixels */
"q.R R ! ;.I.A.>.C.*.0 C.~.t.q.<.R $ :.s.T.I.-.V.! N.N.F.T.>.{ ! + 9.V.I.N.C.c.& C.N.V.A.>.Y Q _ ;.S.",
"U U 6 Q G ] q.J c Y 4 Q ~ ~ R J [ X Y Q :.9.R H G ~ ~ @.Y Y J Q o U R /.[ x E $ R ~ ] G I E 8 Q L ' ",
"/ ^ 7 q ..` Z B %.g * ^ E E / ^ 2 O X.D ^ A E E w ^ E ( ( A / > o ^ F O.C C 2.o / T / ^ ) 1.q q W ^ ",
"o $ o + + + + + . + + $ X + o + O @   @ + X O + + X o X @ + X + O % O @ X + o $ o o + + + X + X + + ",
"7 ..B Z U f.Q / ..Z E B B U W ..^ V ..T 7.+.Q Q x ..I U Q + ..T B W .. . .X Q B R J V W $ ^ T B K :.",
"- ..W T W +.W 7 8 ..W %...W 8 ` ..W W Q ' #.4 4 Q Q Y Q Q $ Q ' ..W V `  .X ..` R R ' T + W ` ' R { ",
"+   @ @ O O % O O + X + + O + + + X + + + X + $ + o $ o $ + o + X O @ O @ O   O + @ X o $ + O O X + ",
"(  .Z Q. .^ N O.O. .> d. .].d.^ ^ O d...W B ^ ^ / E h./ (./ ^ ..O g.` W N ( 2.# 5.e.o.!.W / ^ ]. .^ ",
"^ o., q o.2.%.2.o.^ > ^ C E C o.( + o.Z  . .W ^ / ) ( C ^ D  .^ @ 2.E / B ( 1.# ^ ^ E E / ) 2 q  ./ ",
"- % + % o & w $ + & + 7 7 & 7 + % X % % % 5 = % $ - 7 7 & 7 % % o & 8 7 7 + $ + 7 4 4 & 7 + % @ % $ ",
"@.r.j.J.M.M.c.Q Q *.G.9.Q ~ + 0.i.r._.b.v.v.R L 9.C.Q Q ' R :.i.t.U.C.C.o Q Q C.a.R H [ ~ r.q.U.D.D.",
"R ~ Q Y G U 4 [ [ Y H J G I $ ' Q J L H P i ] [ ! [ K G { H [ ] ! K v ' + ..J J P H Y Q Q Q { R J J ",
"' [ *.#.5 - 5 ; 5 5 _ } u ; + W ~ +.9 6 4 4 6 6 4 %.4 5 8 Q Y +.~ 6 6 5 o g 8 Q R 5 5 8 / / $.' 4 5 ",
"_ #.+ R.P.^.^.!.R.v =.P.P.Y.+.../ !.!.!.^.R./.J.~ !.!.!.r.%.%.~ ~./.J.!.(.L.$ E _.P.R.e.&./ o !.^.^.",
"} R % Q ..c c Q P.- [ [ V U ' +.4 k./ Q v v R ^.4 i.B U ' ' $.4 t.~ ! K [ ..o W =.b R R ~ / + ' Y J ",
"_ 5 + Q Q %.B / 9 & ' Q R ..%.Q 8 4 Q Q ` b _ 5 8 W W ..@.` c 5 9 ! ~ Y +.~ X W ..@.Q *.Q 4 $ W ' ~ ",
"+ + + X + o + + X + o O - % + + + + + % + X + O + + @ + + O + + O @ + o + $ + + + % * + o $ + o @ + ",
"W ..)...^ ^ o ( Q.y.y.5. .^ ^  .).e.W W W $ B Q.d. .A  .O o.A W.k.T / / I / u.i.E 5.) X ^ ^ !.' Z ^ ",
"..U r.T W / + m m U W ^ ^ 8 ..B Q ` ' b ' X U Z T W ....+ A V ' ' T T W E m b W V W ( + o.B i.' Q Y ",
"s u T ..Q w $ ) / W ..s g 9 8 k s ' W W s + ..Q Q W s 5 + x s u U ..T 5 / Q Q ..b d , + s d ' L Q j ",
"& % 0 7 . - & & & & & o % % % & & 9 9 & & & & - 4 & - % % % & 4 u = - - & % & - @ @ = @ % - 9 9 o & ",
"E o./ o.% ^ Z B Z E ^ $ W V U E z...o.h / m ^ A m ^ .. .B / E h.^ ....B / U E E x W o.A o...W Q o ) ",
"X.X.) ( O X.X.X.X.( ( X  . . . .^ X.1 1 8.3.X.2.3.< 2.X.D 2.o. . .> q ) ) / %.o.# 3.( F X.( ^  .+ F ",
"O O + O @ @ @ O O + O + O @ O O + O O @ % @ @ O O @   @ @ O O + + + o + o $ $ + + O + + + + + + * * ",
"i.T ' b #.[ $ i.Q C.G.' ` T Y._ ' c ' ..[ + i.Q R.i.W ' + i.' _ b Q ~ R R t.Q J.*.+.Q o t.Q [ U +.Q ",
"W W ' ' #.` X ' b v b _ ' - 5 ' T $.#.&.T + [ b b U R T + L J _ $.` Q [ ~ ! c Y Q W Q O Q Y Q R Q Q ",
"@ + % % + + + + + @ + X O @ X + + = & @ X X X + + @ X + + O - = @   + O + o * X o O O   @ > = @ + + ",
"m.S X.X C D ( ( C ( M ) o.d.h.D 2.> X.C ( 1.( C  .O ( n.g.L.^  .3 F S X.^ ( n ( y 1.n.g.E.C F X C S ",
"5.8.< + ( C o.o.o.2.< ^ m C 2.5.o.f 2 C C ( ( 2.2.+ M C C 6.) ^ 1 3 S C / ) ) y y M S C 3.X.2 O o.C ",
"* $ @ + + % & % $ $ o % - & % $ + + + % % % , o o o - % w > $ $ % % + + & $ $ $ + * * , @ % + + + @ ",
"D.M.b.c.!.+ U P.b.b.$.~ R $ G.G.b.b.^.J.- R D.D.D.Q [ +.'.l.G.c.c.G.Y.] K.H.F.9.Q R [ Y.v.l.D.D.(.8 ",
"Q Q J +.' + ..Q U l T Q Q o ' R V b ' C.% ' Q Y J J #.j k.' Q U Y Q I.6 a.G G G Y ' 4 p.R ' J Q o.3 ",
"X.( o.^  .X o./ o.W / o.> $ ^ / D A  .a %  .( ../ o.( 8 , X.X.X.Z  ., q ^ / ^ / / W 8 ,  . .^ o.1.O ",
"X @ + + O @ X X o + + X + o X + + X O O X + X + + o X @ O O O + O @ X O + X $ + $ o + @   @ + O O + ",
"' _ Q U [ P.r.} Q [ - [ U.i.Q R ' o +.' P.p.! ! [ ] Q q.r...' Q O ` _ `.~ R Q $ U } <.a.Q R W ` Q G.",
"b ' 5 T J _ _ L R R - v J J R +.Q $ R l $.] R H P J H P H H [ R O ' v ,.R l / & J J v p R ' 5 ' v _ ",
"5 8 9 8 8 5 *.&.+.5 - ..W ..R 5 5 + 5 9 j / Q ~ 6 [ ~ Q +.9 4 8 O 7 8 ` %.W q o ..Q ' ' 4 q 7 5 9 5 ",
"> W E E W f.!.i...W W Q T ` ..^ Z ^ Z W M.J.c.' Q Q ' ..Q $ / E Z B W }.W.o E / Q T ../ + ) E E ' 9.",
"- U E c +.%.Y 8 R B W R B c 4 ' b W  ...%.W 5 ..Y Q Q T B + W c ../ Q o.^ o E E Q ~ m E o Z I c &.@.",
"& w w ..9 8 / 4 4 x j +.9 j 4 j d O.x x x Q 8 5 9 ..Q u 9 $ s i Q z s Q w $ t w Q Q w w + z t *.c 9 ",
"m q m m x m B 8 5 5 + c m x x m a % A N N x w - - c x c x x s 9 % x x c m > 7 + m x b z m m z ^ m x ",
"/ o.o.(.) W Z ....( - x.^ W.h.D ( = d.A  .Z ^ ^ ..^ d...R.o.%.5.X h./ ..m ^ 1.# 5.y.W ^.E 4.4.L. . .",
"( ) r : ( 2.( o.D o.: X.S C ( 3.3.  X.o.^ o.( o.(  .o.E C O.4.^ O X.D  .S 1.1.# ( D C C 2.( q e ^ ^ ",
"+ o X % o X O + + + O @ + O > * + + + X O + + X + $ . o + % + + + X % O X o + O O @ = = : o o X + + ",
"Q ` i.i.Q ` 8 ` b U +.W B #.- W r.i.).T Q 5 T T Q Q ' U R Y ' r.r.^.x ` @ Z W Q ' b V &.( ..r.a.[ _ ",
"W c v ' Q ' 6 5 b U ` ..7...+ B b T Q R Y u 5 b U T +.' - T l J U ' ' ; + ^ m Q T #.' 4 / B b R Q Q ",
"o $ + o $ $ X + + + o o + + X + + + X + + + O O + + X O O @ X + X + + @ + o @ + = @ o + . + o $ $ X ",
"/ / + u.u./ ^ ).W.B 7.j.o.^ o./  .W. .&.W ^ W.W. .Q.d.^ Z ^ .. .{.E ..W / [.X ( L.e./ E / o.+ h.y.o.",
"Q W + W B Q U ' d.5 +.Q Q B R W ; ..Q c Q v W f.s i.R U U `  .- ..+.H Y U / + ^ 7.Q Y c Q / + X.W T ",
"j 9 X h x j J R 9 % [ ! i j i u 8 8 j i G R Q i 5 [ R k i j a ; - i i R R ~ o E Q R i i l 9 X h u u "
};
